# xmcd CD database file
#
# Track frame offsets:
#	150
#	13902
#	32437
#	63575
#
# Disc length: 1203 seconds
#
# Revision: 1
# Processed by: cddbd v1.5.2PL0 Copyright (c) Steve Scherf et al.
# Submitted via: CDex 1.94
#
DISCID=2c04b104
DTITLE=Iggy Pop - Heart Is Saved CDEp
DYEAR=1996
DGENRE=Rock
TTITLE0=Heart Is Saved
TTITLE1=(Get Up I Feel Like Being A) Sex Machine
TTITLE2=Hate (Live at Feile Festival, Ireland 1993)
TTITLE3=The Passenger (Live at Feile Festival, Ireland 1993)
EXTD=YEAR: 1996
EXTT0=
EXTT1=
EXTT2=
EXTT3=
PLAYORDER=
